<svg xmlns="http://www.w3.org/2000/svg" xmlns:xlink="http://www.w3.org/1999/xlink" version="1.1" x="0px" y="0px" viewBox="0 0 512 640" style="enable-background:new 0 0 512 512;" xml:space="preserve"><g><g><g><path style="" d="M209.168,485.502c4.459,7.421,10.387,14.835,19.352,19.294     c25.23,14.837,59.416,5.957,74.257-19.294c131.439-223.613,124.475-216.771,135.172-243.48     c4.447-17.833,7.467-35.657,7.467-53.455c0-51.962-22.309-99.49-56.445-133.615C354.775,20.787,307.234,0,255.239,0     c-52.001,0-99.55,20.787-133.685,54.952c-34.185,34.125-54.97,81.653-54.97,133.615c0,17.798,2.969,35.621,7.428,53.455     C82.047,271.538,129.944,351.393,209.168,485.502z M412.777,185.575c0,87.079-70.443,157.469-157.539,157.469     c-87.109,0-157.552-70.39-157.552-157.469c0-87.04,70.442-157.46,157.552-157.46C342.334,28.115,412.777,98.535,412.777,185.575     L412.777,185.575z" fill-rule="evenodd" clip-rule="evenodd"/></g><g><path d="M253.677,133.487c9.127,0,16.555-9.863,16.555-21.987c0-12.125-7.428-21.988-16.555-21.988     c-9.124,0-16.552,9.863-16.552,21.988C237.125,123.624,244.553,133.487,253.677,133.487z"/><path d="M193.6,139.693c2.48,2.841,5.591,4.312,8.76,4.133c3.17-0.176,6.097-1.984,8.242-5.088     c2.28-3.293,3.393-7.601,3.139-12.129c-0.251-4.528-1.846-8.684-4.477-11.7c-2.479-2.847-5.586-4.315-8.756-4.136     c-6.789,0.379-11.895,8.104-11.385,17.217C189.379,132.518,190.967,136.674,193.6,139.693z"/><path d="M306.018,144.354h0.016c3.17,0,6.186-1.633,8.508-4.603c2.465-3.156,3.826-7.392,3.834-11.927l0,0     c0.01-4.535-1.336-8.777-3.787-11.942c-2.313-2.984-5.332-4.628-8.506-4.635c-0.008,0-0.012,0-0.012,0     c-3.174,0-6.193,1.634-8.514,4.602c-2.463,3.156-3.83,7.393-3.836,11.927C293.703,136.905,299.217,144.34,306.018,144.354z"/><path d="M342.975,166.263c5.584,1.278,11.539-3.827,13.273-11.387c1.734-7.558-1.398-14.75-6.98-16.03     c-0.58-0.134-1.166-0.198-1.742-0.198c-5.033,0-9.979,4.806-11.535,11.582c-0.865,3.771-0.549,7.551,0.889,10.644     C338.223,163.753,340.385,165.668,342.975,166.263z"/><path d="M150.893,153.837c0.666,3.812,2.424,7.173,4.953,9.461c2.352,2.134,5.092,3.06,7.707,2.6     c2.616-0.457,4.877-2.256,6.369-5.063c1.597-3.015,2.108-6.772,1.441-10.582c-1.337-7.641-7.018-13.052-12.665-12.063     C153.055,139.181,149.553,146.198,150.893,153.837L150.893,153.837z"/><path d="M304.729,163.921l-26.439-6.61c-17.869-4.467-36.724-4.352-54.537,0.335l-21.95,5.778     c-29.427,7.743-51.618,38.229-51.618,70.914v0.107c0,13.68,6.098,26.47,16.717,35.09c10.597,8.595,24.32,11.931,37.674,9.149     l31.338-9.602c0.07-0.022,0.143-0.041,0.216-0.057c9.837-2.07,19.82-2.121,29.672-0.149c0.064,0.012,0.125,0.028,0.186,0.044     l37.227,10.454c13.299,2.635,26.932-0.784,37.418-9.383c10.512-8.614,16.539-21.354,16.539-34.945     C357.17,201.973,334.625,171.396,304.729,163.921z"/></g></g></g><text x="0" y="527" fill="#000000" font-size="5px" font-weight="bold" font-family="'Helvetica Neue', Helvetica, Arial-Unicode, Arial, Sans-serif">Created by Flatart</text><text x="0" y="532" fill="#000000" font-size="5px" font-weight="bold" font-family="'Helvetica Neue', Helvetica, Arial-Unicode, Arial, Sans-serif">from the Noun Project</text></svg>